#!OML:ASF F:\VICON\USERDATA\INSTALL\rory3\rory3.ASF
:FULLY-SPECIFIED
:DEGREES
61
root 0.4229607038573376 17.590507241549343 30.005249013642455 3.3007480267886335 3.0172999065763744 1.1247075798505182
lfemur 2.043688338207456 -5.153250434053616 -23.24256700985423
ltibia 39.858474368504375
lfoot 9.676791782270133 -5.67181545790223
ltoes -13.863348743659762
rfemur -33.0173473510411 -2.0436093663642367 26.158268219282128
rtibia 54.33252462783018
rfoot 1.1187610053227575 -2.8523416962602006
rtoes 1.456328952101703
lowerback 13.175477990170286 -2.0247837626161074 0.7400389424754739
upperback -0.9792593423692026 -2.3206633135254804 2.2211842465537157
thorax -7.448562255386779 -1.0900988278844381 3.290663858338762
lowerneck -18.115439468484475 -3.1634570358638965 -3.4306611793982666
upperneck 18.86002121733703 -3.7589961185144567 2.618345391348972
head 9.008835813886595 -1.6596824542470632 0.9826964014485986
lclavicle -2.266620111704135e-15 6.812692466019279e-16
lhumerus -37.874369413360206 -8.153881787587128 90.52735861316363
lradius 77.34315544484895
lwrist 22.01532301674969
lhand -25.439138571218912 12.335440896280431
lfingers 7.125019999999999
lthumb 1.1655048065914921 42.33592690870327
rclavicle -2.259613179712723e-15 6.861957860127593e-16
rhumerus -45.900806839416404 -9.786522555107101 -86.52950334541023
rradius 62.5387404523198
rwrist 0.5111030157568783
rhand -15.684326156087359 30.252346468148925
rfingers 7.125019999999999
rthumb 10.3735032890896 0.8866796625586821
62
root 0.4442494074582569 17.83786423308151 30.797775407043098 2.7810096253571714 3.869426756597222 0.7971849115370055
lfemur 1.2478553530954013 -5.548952631768146 -22.98346300483868
ltibia 39.67629780732884
lfoot 15.845858867422466 -6.589662001349588
ltoes -7.341325916765648
rfemur -30.903151581826464 -2.317446235996952 26.592751258019316
rtibia 48.36479834026513
rfoot 1.0496883690563052 -2.9220342727372013
rtoes -2.3068897035427076
lowerback 13.024367073631826 -2.3031919951378432 1.0728328614994243
upperback -0.8135842080484321 -2.5705649268943613 2.3209811046070015
thorax -7.302845613130946 -1.228704619336446 3.0960299696497247
lowerneck -18.1263376412447 -3.159771254273901 -3.579093181069612
upperneck 18.967679141585318 -3.6869350354466994 2.685245093849188
head 9.045983048541387 -1.6381470072315032 1.0304766077669374
lclavicle -2.2693623851619668e-15 6.793459210693645e-16
lhumerus -39.303541257222975 -8.537552693212353 90.36823961027109
lradius 76.52814999824271
lwrist 20.948726791297275
lhand -25.34902138378966 12.525767055296663
lfingers 7.125019999999999
lthumb 1.6564793805891178 42.78521471999053
rclavicle -2.2595819252619645e-15 6.862176748692051e-16
rhumerus -46.41543561272004 -10.848274632041012 -85.69413122405344
rradius 62.486936848754745
rwrist 0.4390188602661702
rhand -15.66864000387999 30.47611612997851
rfingers 7.125019999999999
rthumb 10.424376124341586 1.303008433749554
63
root 0.4879540364937041 18.02381433397638 31.50330775690429 2.521516551488781 4.674109602426247 0.7875148111685286
lfemur 0.2647853513558953 -5.57229095178546 -23.082446753128792
ltibia 39.26063602779191
lfoot 20.38258008387246 -7.830778416580818
ltoes -1.9920480753216632
rfemur -29.019479661838297 -2.4280858295479337 26.687637701051116
rtibia 42.86208998631521
rfoot 0.8691650571190928 -2.961872548734579
rtoes -4.226921631250565
lowerback 12.657996279391435 -2.454609994136256 1.1569127744176295
upperback -0.709442218511185 -2.8040934572690395 2.3282391140219847
thorax -7.056407498743174 -1.3724809627474643 2.9479964025177985
lowerneck -18.08756996085419 -3.0742292781196205 -3.6618579605705417
upperneck 19.041008120139093 -3.5505695640959516 2.5994204923965905
head 9.038758642856948 -1.595368211539432 1.049179603995099
lclavicle -2.2669199092935212e-15 6.810498526518299e-16
lhumerus -40.675847308552235 -8.829170448289176 90.13855219377403
lradius 75.95932714684038
lwrist 20.31854415395396
lhand -25.07737624530513 12.639628814134383
lfingers 7.125019999999999
lthumb 1.990932160020216 43.04564601518094
rclavicle -2.2601262706755053e-15 6.858359761750654e-16
rhumerus -46.68149718973275 -11.694374242048385 -85.01186372884865
rradius 62.560259823124014
rwrist 0.6696865564176719
rhand -15.688178534758546 30.420045476386395
rfingers 7.125019999999999
rthumb 10.545955895537949 1.6041506664395235
64
root 0.562361298013774 18.156485157835736 32.26061496580011 2.98882120843397 4.690581041032848 0.9361850419579074
lfemur -1.098320715457767 -5.325868790150794 -23.615806334147933
ltibia 38.543906216919446
lfoot 21.401683280541494 -9.094773868996395
ltoes -1.6095703467529567
rfemur -28.040988537447056 -2.011521273892847 26.67996126269314
rtibia 38.68078421555552
rfoot 0.729261995486326 -2.959211675693454
rtoes -5.7870253052315945
lowerback 11.94927297502097 -2.360153698397726 0.9595440448040835
upperback -0.7753980178805545 -2.680281735425665 2.243962155453546
thorax -6.705466446574952 -1.329715232124234 2.803610671411708
lowerneck -18.151817117051777 -2.985942251686992 -3.6919732368668545
upperneck 19.139542891602154 -3.4608096798685093 2.5170052379359102
head 9.070279056215762 -1.5691103404936937 1.046471489219612
lclavicle -2.2649133358694724e-15 6.824557820946053e-16
lhumerus -42.22964883627612 -9.060052056435193 89.80632557831042
lradius 75.72042161884376
lwrist 20.35306354655527
lhand -24.9319673723042 12.632471910040998
lfingers 7.125019999999999
lthumb 2.0069158938325993 42.809183695839096
rclavicle -2.261487757950558e-15 6.848812981297817e-16
rhumerus -46.60596547355416 -11.843440361920196 -84.9508764829342
rradius 63.134255716629056
rwrist 0.8097679657240939
rhand -15.540205406929744 30.504851005892327
rfingers 7.125019999999999
rthumb 10.55962233280634 1.6275722541309952
